<svg xmlns="http://www.w3.org/2000/svg" width="42" height="42" viewBox="0 0 21 21">
  <metadata><?xpacket begin="﻿" id="W5M0MpCehiHzreSzNTczkc9d"?>
<x:xmpmeta xmlns:x="adobe:ns:meta/" x:xmptk="Adobe XMP Core 5.6-c142 79.160924, 2017/07/13-01:06:39        ">
   <rdf:RDF xmlns:rdf="http://www.w3.org/1999/02/22-rdf-syntax-ns#">
      <rdf:Description rdf:about=""/>
   </rdf:RDF>
</x:xmpmeta>





















<?xpacket end="w"?></metadata>
<defs>
    <style>
      .cls-1 {
        fill: #989cb2;
        fill-rule: evenodd;
      }
      .cls-1:hover {
        fill: #ff4019;
      }
    </style>
  </defs>
  <path id="bin-icon" class="cls-1" d="M1528,134h13a4,4,0,0,1,4,4v13a4,4,0,0,1-4,4h-13a4,4,0,0,1-4-4V138A4,4,0,0,1,1528,134Zm11.01,8v7.957a1.082,1.082,0,0,1-1.12,1.042h-6.78a1.082,1.082,0,0,1-1.12-1.042V142h-0.84v-1.5h0.62a0.868,0.868,0,0,1,.78-0.519h1.71V139.9a1.089,1.089,0,0,1,1.26-1.22h1.96a1.089,1.089,0,0,1,1.26,1.22v0.081h1.71a0.868,0.868,0,0,1,.78.519h0.62V142h-0.84Zm-6,.885h-0.99v6.241h0.99v-6.241Zm1.99,0h-1v6.241h1v-6.241Zm2.02,0h-1.03v6.241h1.03v-6.241Z" transform="translate(-1524 -134)"/>
</svg>
